solid JSCAD
facet normal -1 0 0
outer loop
vertex -25 5 -25
vertex -25 5 25
vertex -25 55 25
endloop
endfacet
facet normal -1 0 0
outer loop
vertex -25 5 -25
vertex -25 55 25
vertex -25 55 -25
endloop
endfacet
facet normal 1 0 0
outer loop
vertex 25 5 -25
vertex 25 55 -25
vertex 25 55 25
endloop
endfacet
facet normal 1 0 0
outer loop
vertex 25 5 -25
vertex 25 55 25
vertex 25 5 25
endloop
endfacet
facet normal 0 -1 0
outer loop
vertex -25 5 -25
vertex 25 5 -25
vertex 25 5 25
endloop
endfacet
facet normal 0 -1 0
outer loop
vertex -25 5 -25
vertex 25 5 25
vertex -25 5 25
endloop
endfacet
facet normal 0 1 0
outer loop
vertex -25 55 -25
vertex -25 55 25
vertex 25 55 25
endloop
endfacet
facet normal 0 1 0
outer loop
vertex -25 55 -25
vertex 25 55 25
vertex 25 55 -25
endloop
endfacet
facet normal 0 0 -1
outer loop
vertex -25 5 -25
vertex -25 55 -25
vertex 25 55 -25
endloop
endfacet
facet normal 0 0 -1
outer loop
vertex -25 5 -25
vertex 25 55 -25
vertex 25 5 -25
endloop
endfacet
facet normal 0 0 1
outer loop
vertex -25 5 25
vertex 25 5 25
vertex 25 55 25
endloop
endfacet
facet normal 0 0 1
outer loop
vertex -25 5 25
vertex 25 55 25
vertex -25 55 25
endloop
endfacet
endsolid JSCAD
